<svg xmlns="http://www.w3.org/2000/svg" width="9.992" height="18.447" viewBox="0 0 9.992 18.447">
  <g id="bluetooth-icon" transform="translate(-58)">
    <g id="Group_68" data-name="Group 68" transform="translate(58)">
      <path id="Path_41" data-name="Path 41" d="M122.9,9.224l4.3-3.945A.387.387,0,0,0,127.329,5a.381.381,0,0,0-.112-.28L122.605.113a.385.385,0,0,0-.656.272V8.35l-3.968-3.637a.385.385,0,0,0-.52.567l4.3,3.944-4.3,3.944a.385.385,0,0,0,.52.567l3.968-3.637v7.965a.384.384,0,0,0,.238.355.376.376,0,0,0,.147.029.385.385,0,0,0,.272-.113l4.612-4.612a.384.384,0,0,0-.012-.555Zm-.184-7.912,3.672,3.672L122.717,8.35Zm0,15.823V10.1l3.672,3.366Z" transform="translate(-117.337 -0.001)"/>
    </g>
  </g>
</svg>
