<svg xmlns="http://www.w3.org/2000/svg" width="12.204" height="23.701" viewBox="0 0 12.204 23.701">
  <path id="cable-icon" d="M48.206,19.034a2.522,2.522,0,0,0-2.719,2.253V26.2a1.908,1.908,0,0,1-3.749,0V23.719h.784a.391.391,0,0,0,.422-.35v-1.41a2.032,2.032,0,0,0,.966-1.671v-8a.391.391,0,0,0-.422-.35h-.543V6.1a.322.322,0,0,0-.124-.247l-1.207-1a.486.486,0,0,0-.6,0l-1.207,1a.323.323,0,0,0-.124.247v5.842h-.543a.392.392,0,0,0-.422.35v8a2.031,2.031,0,0,0,.966,1.671v1.411a.392.392,0,0,0,.422.35h.785V26.2a2.767,2.767,0,0,0,5.438,0v-4.91a1.908,1.908,0,0,1,3.749,0v2.08a.43.43,0,0,0,.845,0v-2.08a2.522,2.522,0,0,0-2.719-2.253ZM40.531,9.117H42.1v.617H40.531Zm.785-3.522.785.65V8.417H40.531V6.245Zm-.785,4.839H42.1v1.508H40.531Zm-.966,2.208h3.5v7.645a1.4,1.4,0,0,1-.772,1.2l-.009,0a2.049,2.049,0,0,1-1.939,0h0a1.4,1.4,0,0,1-.777-1.2Zm.966,9.694a3.094,3.094,0,0,0,1.569,0v.683H40.531Z" transform="translate(-38.721 -4.75)"/>
</svg>
