<svg id="Layer_2" height="512" viewBox="0 0 128 128" width="512" xmlns="http://www.w3.org/2000/svg" data-name="Layer 2"><path d="m78.014 76.169a11.277 11.277 0 0 0 -11.264 11.265v24.551a7.765 7.765 0 1 1 -15.529 0v-12.395h3.249a1.75 1.75 0 0 0 1.75-1.75v-7.051a10.733 10.733 0 0 0 4-8.356v-39.975a1.75 1.75 0 0 0 -1.75-1.75h-2.25v-29.208a1.749 1.749 0 0 0 -.512-1.237l-5-5a1.749 1.749 0 0 0 -2.475 0l-5 5a1.75 1.75 0 0 0 -.513 1.237v29.208h-2.249a1.751 1.751 0 0 0 -1.75 1.75v39.975a10.73 10.73 0 0 0 4 8.354v7.053a1.751 1.751 0 0 0 1.75 1.75h3.251v12.395a11.265 11.265 0 1 0 22.529 0v-24.551a7.765 7.765 0 1 1 15.529 0v10.4a1.75 1.75 0 0 0 3.5 0v-10.4a11.277 11.277 0 0 0 -11.266-11.265zm-31.794-49.583h6.5v3.083h-6.5zm3.25-17.611 3.25 3.25v10.861h-6.5v-10.861zm-3.25 24.194h6.5v7.539h-6.5zm-4 11.039h2.235.014.015 9.971.014.015 2.236v38.225a7.248 7.248 0 0 1 -3.2 6.011c-.012.008-.025.014-.036.022a7.224 7.224 0 0 1 -8.033 0l-.012-.007a7.248 7.248 0 0 1 -3.218-6.021zm4 48.469a10.7 10.7 0 0 0 6.5 0v3.413h-3.22c-.008 0-.016 0-.024 0s-.016 0-.024 0h-3.232z"/></svg>