<svg xmlns="http://www.w3.org/2000/svg" width="28.527" height="24" viewBox="0 0 28.527 24"><g transform="translate(0 0)"><path d="M62.743,145.77v8.7a.938.938,0,0,0,1.875,0v-8.7a.938.938,0,1,0-1.875,0Z" transform="translate(-56.461 -131.419)"/><path d="M2.924,46.8H5.242V35.2a1.473,1.473,0,0,0,.016-.168,9,9,0,1,1,18.006,0,1.465,1.465,0,0,0,.023.225V46.8H25.6a2.975,2.975,0,0,0,2.923-3.024V37.731a3.012,3.012,0,0,0-2.11-2.9,12.156,12.156,0,0,0-24.311,0A3.01,3.01,0,0,0,0,37.732V43.78A2.976,2.976,0,0,0,2.924,46.8Z" transform="translate(0 -22.804)"/><path d="M203.454,145.77v8.7a.938.938,0,1,0,1.875,0v-8.7a.938.938,0,1,0-1.875,0Z" transform="translate(-183.082 -131.419)"/></g></svg>