<svg id="Layer_2" height="512" viewBox="0 0 128 128" width="512" xmlns="http://www.w3.org/2000/svg" data-name="Layer 2"><path d="m98.81 123.25a1.749 1.749 0 0 1 -1.75-1.75v-31.22a1.75 1.75 0 0 1 3.5 0v31.22a1.75 1.75 0 0 1 -1.75 1.75z"/><path d="m101.81 92.03h-6a1.749 1.749 0 0 1 -1.75-1.75v-41.62a1.75 1.75 0 0 1 3.5 0v39.87h2.5v-41.55a1.75 1.75 0 1 1 3.5 0v43.3a1.75 1.75 0 0 1 -1.75 1.75z"/><path d="m49.748 4.75a7.748 7.748 0 0 0 -6.855 4.15l-16.971 4.723a4.763 4.763 0 0 0 -3.482 4.577v14.73a4.742 4.742 0 0 0 2 3.852v42.258a1.75 1.75 0 0 0 1.75 1.75h1.25v40.71a1.75 1.75 0 0 0 3.5 0v-40.71h1.25a1.749 1.749 0 0 0 1.75-1.75v-39.307l9.246 2.567a7.742 7.742 0 0 0 14.319-4.093v-25.707a7.761 7.761 0 0 0 -7.757-7.75zm-19.308 72.54h-2.5v-39.223l2.5.694zm-3.573-43.154c-.031-.013-.062-.026-.094-.036a1.245 1.245 0 0 1 -.832-1.17v-14.73a1.256 1.256 0 0 1 .918-1.2l15.147-4.212v25.419c0 .045.006.089.007.134zm27.138 4.071a4.25 4.25 0 0 1 -8.5 0v-25.714a4.25 4.25 0 0 1 8.5.007z"/><path d="m102.078 24.854-16.968-4.71a7.748 7.748 0 0 0 -14.61 3.589v25.707a7.742 7.742 0 0 0 14.321 4.09l17.269-4.8a3.251 3.251 0 0 0 .372-.127 4.752 4.752 0 0 0 3.1-4.447v-14.716a4.792 4.792 0 0 0 -3.484-4.586zm-23.833 28.836a4.254 4.254 0 0 1 -4.245-4.25v-25.707a4.25 4.25 0 0 1 8.5-.006v25.713a4.254 4.254 0 0 1 -4.255 4.25zm23.815-9.53a1.246 1.246 0 0 1 -.833 1.17l-.091.035-15.148 4.206c0-.044.007-.086.007-.131v-25.418l15.136 4.2a1.276 1.276 0 0 1 .929 1.217z"/></svg>