<svg id="earphones-icon" xmlns="http://www.w3.org/2000/svg" width="17.9" height="25.519" viewBox="0 0 17.9 25.519">
  <path id="Path_37" data-name="Path 37" d="M97.437,96.007a.377.377,0,0,1-.377-.377V88.907a.377.377,0,0,1,.754,0V95.63A.377.377,0,0,1,97.437,96.007Z" transform="translate(-80.991 -70.488)"/>
  <path id="Path_38" data-name="Path 38" d="M95.729,55.308H94.437a.377.377,0,0,1-.377-.377V45.969a.377.377,0,0,1,.754,0v8.586h.538V45.607a.377.377,0,0,1,.754,0v9.325a.377.377,0,0,1-.377.377Z" transform="translate(-78.637 -36.513)"/>
  <path id="Path_39" data-name="Path 39" d="M28.321,4.75a1.669,1.669,0,0,0-1.476.894L23.19,6.661a1.026,1.026,0,0,0-.75.986v3.172a1.021,1.021,0,0,0,.431.83v9.1a.377.377,0,0,0,.377.377h.269v8.767a.377.377,0,0,0,.754,0V21.125h.269a.377.377,0,0,0,.377-.377V12.283l1.991.553a1.667,1.667,0,0,0,3.084-.881V6.419a1.671,1.671,0,0,0-1.67-1.669ZM24.163,20.371h-.538V11.925l.538.149Zm-.769-9.293-.02-.008a.268.268,0,0,1-.179-.252V7.646a.27.27,0,0,1,.2-.258l3.262-.907v5.474c0,.01,0,.019,0,.029Zm5.844.877a.915.915,0,0,1-1.83,0V6.417a.915.915,0,1,1,1.83,0Z" transform="translate(-22.44 -4.75)"/>
  <path id="Path_40" data-name="Path 40" d="M77.3,17.9l-3.654-1.014a1.669,1.669,0,0,0-3.146.773V23.2a1.667,1.667,0,0,0,3.084.881L77.3,23.043a.7.7,0,0,0,.08-.027,1.023,1.023,0,0,0,.668-.958V18.889a1.032,1.032,0,0,0-.75-.988Zm-5.132,6.21a.916.916,0,0,1-.914-.915V17.66a.915.915,0,1,1,1.83,0V23.2A.916.916,0,0,1,72.168,24.111ZM77.3,22.059a.268.268,0,0,1-.179.252l-.02.008-3.262.906c0-.009,0-.019,0-.028V17.722l3.259.9a.275.275,0,0,1,.2.262Z" transform="translate(-60.15 -13.572)"/>
</svg>
