<svg xmlns="http://www.w3.org/2000/svg" width="23.344" height="24.639" viewBox="0 0 23.344 24.639">
  <path id="headphones-icon" d="M30.326,21.557l.48-2.471a11.556,11.556,0,0,0-3.578-10.7,1.712,1.712,0,0,0-.736-1.447,11.967,11.967,0,0,0-1.358-.823,12.174,12.174,0,0,0-11.195,0,11.968,11.968,0,0,0-1.358.823,1.712,1.712,0,0,0-.736,1.447,11.556,11.556,0,0,0-3.58,10.7l.48,2.471a2.412,2.412,0,0,0-.835,2.33l.52,2.624a2.385,2.385,0,0,0,2.713,1.912,1.9,1.9,0,0,0,2.026.93l.219-.043a1.9,1.9,0,0,0,1.5-2.236L13.657,20.9a1.9,1.9,0,0,0-2.235-1.5l-.219.043a1.888,1.888,0,0,0-.705.3l-.2-1.056a9.483,9.483,0,0,1,2.854-8.7l.031.009a1.7,1.7,0,0,0,1.343-.27,8.555,8.555,0,0,1,.985-.6,8.769,8.769,0,0,1,8.058,0,8.56,8.56,0,0,1,.985.6,1.7,1.7,0,0,0,1.343.27l.031-.009a9.483,9.483,0,0,1,2.854,8.7l-.2,1.056a1.888,1.888,0,0,0-.705-.3l-.219-.043a1.9,1.9,0,0,0-2.235,1.5l-1.224,6.17a1.9,1.9,0,0,0,1.5,2.236l.219.043a1.9,1.9,0,0,0,2.026-.93,2.385,2.385,0,0,0,2.713-1.911l.52-2.624A2.412,2.412,0,0,0,30.326,21.557ZM9.857,27.439a1.668,1.668,0,0,1-.714-1.07l-.52-2.624a1.681,1.681,0,0,1,1.112-1.92L10.9,27.719A1.666,1.666,0,0,1,9.857,27.439Zm1.487-7.274.219-.043a1.174,1.174,0,0,1,1.381.923l1.223,6.172a1.175,1.175,0,0,1-.923,1.38l-.219.043a1.174,1.174,0,0,1-1.38-.923l-.252-1.271-.972-4.9a1.175,1.175,0,0,1,.923-1.38ZM9.577,18.832l.312,1.6a1.9,1.9,0,0,0-.2.649,2.4,2.4,0,0,0-.276.086l-.432-2.225a10.824,10.824,0,0,1,3.084-9.769l.008.015a1.7,1.7,0,0,0,.387.455,10.213,10.213,0,0,0-2.879,9.184ZM24.968,9.139a9.3,9.3,0,0,0-1.069-.65,9.5,9.5,0,0,0-8.729,0,9.265,9.265,0,0,0-1.069.65A.975.975,0,1,1,13,7.533a11.252,11.252,0,0,1,1.275-.773,11.447,11.447,0,0,1,10.525,0,11.252,11.252,0,0,1,1.275.773.974.974,0,1,1-1.1,1.606Zm1.645.509A1.7,1.7,0,0,0,27,9.192l.008-.015a10.824,10.824,0,0,1,3.084,9.77l-.432,2.225a2.4,2.4,0,0,0-.276-.086,1.9,1.9,0,0,0-.2-.649l.312-1.6A10.213,10.213,0,0,0,26.613,9.647Zm.313,18.817a1.168,1.168,0,0,1-.881.176l-.219-.043a1.175,1.175,0,0,1-.923-1.38l1.223-6.172a1.17,1.17,0,0,1,1.38-.923l.219.043a1.175,1.175,0,0,1,.923,1.38l-.972,4.9-.252,1.271a1.166,1.166,0,0,1-.5.748Zm3.522-4.72-.52,2.624a1.681,1.681,0,0,1-1.761,1.35l1.169-5.895a1.681,1.681,0,0,1,1.112,1.92Z" transform="translate(-7.863 -4.751)"/>
</svg>
