<?xml version="1.0"?>
<svg xmlns="http://www.w3.org/2000/svg" width="512" height="512" viewBox="0 0 128 128"><path d="M115.9,85.578l2.309-11.885A55.58,55.58,0,0,0,101,22.227a8.234,8.234,0,0,0-3.542-6.96,57.56,57.56,0,0,0-6.532-3.96,58.551,58.551,0,0,0-53.842,0,57.56,57.56,0,0,0-6.532,3.96,8.234,8.234,0,0,0-3.542,6.96A55.581,55.581,0,0,0,9.792,73.694L12.1,85.578A11.6,11.6,0,0,0,8.082,96.785l2.5,12.62A11.471,11.471,0,0,0,23.631,118.6a9.147,9.147,0,0,0,7.943,4.653,9.234,9.234,0,0,0,1.8-.178l1.053-.208a9.156,9.156,0,0,0,7.191-10.752L35.729,82.436a9.158,9.158,0,0,0-10.751-7.192l-1.052.209a9.08,9.08,0,0,0-3.393,1.432l-.985-5.078A45.609,45.609,0,0,1,33.276,29.972c.05.012.1.03.149.041a8.184,8.184,0,0,0,6.461-1.3,41.147,41.147,0,0,1,4.736-2.879,42.176,42.176,0,0,1,38.757,0,41.169,41.169,0,0,1,4.736,2.878,8.187,8.187,0,0,0,6.46,1.3c.051-.011.1-.029.149-.041a45.609,45.609,0,0,1,13.728,41.835l-.985,5.078a9.08,9.08,0,0,0-3.393-1.432l-1.052-.209a9.161,9.161,0,0,0-10.751,7.192l-5.887,29.677a9.156,9.156,0,0,0,7.192,10.752l1.051.208a9.236,9.236,0,0,0,1.8.178,9.147,9.147,0,0,0,7.943-4.653,11.471,11.471,0,0,0,13.046-9.193l2.5-12.62A11.6,11.6,0,0,0,115.9,85.578ZM17.453,113.87a8.023,8.023,0,0,1-3.434-5.146l-2.5-12.62a8.086,8.086,0,0,1,5.35-9.236l5.623,28.35A8.012,8.012,0,0,1,17.453,113.87Zm7.154-34.983,1.052-.209A5.644,5.644,0,0,1,32.3,83.117L38.183,112.8a5.653,5.653,0,0,1-4.439,6.637l-1.053.208a5.644,5.644,0,0,1-6.636-4.439l-1.213-6.115L20.168,85.522A5.651,5.651,0,0,1,24.607,78.887Zm-8.5-6.414,1.5,7.715a9.15,9.15,0,0,0-.976,3.121,11.546,11.546,0,0,0-1.326.415l-2.079-10.7A52.058,52.058,0,0,1,28.06,26.039c.014.024.024.049.038.072A8.181,8.181,0,0,0,29.959,28.3,49.122,49.122,0,0,0,16.112,72.473ZM90.13,25.854a44.734,44.734,0,0,0-5.139-3.125,45.683,45.683,0,0,0-41.981,0,44.563,44.563,0,0,0-5.139,3.125,4.677,4.677,0,0,1-6.742-1.493,4.706,4.706,0,0,1,1.428-6.229,54.117,54.117,0,0,1,6.133-3.718,55.053,55.053,0,0,1,50.62,0,54.117,54.117,0,0,1,6.133,3.718,4.706,4.706,0,0,1,1.428,6.229,4.676,4.676,0,0,1-6.741,1.493ZM98.041,28.3A8.181,8.181,0,0,0,99.9,26.111c.014-.023.024-.048.038-.072a52.057,52.057,0,0,1,14.832,46.987l-2.079,10.7a11.546,11.546,0,0,0-1.326-.415,9.15,9.15,0,0,0-.976-3.121l1.5-7.715A49.122,49.122,0,0,0,98.041,28.3ZM99.547,118.8a5.617,5.617,0,0,1-4.239.845l-1.051-.208a5.653,5.653,0,0,1-4.44-6.637L95.7,83.117a5.629,5.629,0,0,1,6.637-4.439l1.052.209a5.651,5.651,0,0,1,4.439,6.635l-4.674,23.564-1.213,6.115A5.609,5.609,0,0,1,99.547,118.8ZM116.484,96.1l-2.5,12.62a8.086,8.086,0,0,1-8.47,6.494l5.623-28.35a8.086,8.086,0,0,1,5.35,9.236Z"/></svg>
