<svg xmlns="http://www.w3.org/2000/svg" width="83.847" height="32.644" viewBox="0 0 83.847 32.644">
  <g id="akg-logo" transform="translate(0 0)">
    <g id="Group_61" data-name="Group 61" transform="translate(0 0)">
      <path id="Path_24" data-name="Path 24" d="M184.78,233.094h6.7v8.071h.71l8.452-8.071h9.128l-11.847,10.739,13.233,11.223h-9.3l-9.665-8.435h-.71v8.435h-6.7Zm-19.849,13.337h7.534l-3.828-8.244Zm0,0h7.534l-3.828-8.244Zm0,0h7.534l-3.828-8.244Zm-.121-13.337h7.673l10.565,21.945H176.5l-1.836-3.88H162.714l-1.732,3.88H154.4Zm0,0h7.673l10.565,21.945H176.5l-1.836-3.88H162.714l-1.732,3.88H154.4Zm0,0h7.673l10.565,21.945H176.5l-1.836-3.88H162.714l-1.732,3.88H154.4Zm69.09,6.027.866-5.491a58.684,58.684,0,0,0-9.284-1.091,45.594,45.594,0,0,0-7.846.468,10.684,10.684,0,0,0-4.5,1.767,7.758,7.758,0,0,0-2.667,3.533,15.922,15.922,0,0,0-.883,5.75,15.593,15.593,0,0,0,.883,5.716,7.7,7.7,0,0,0,2.65,3.481,10.713,10.713,0,0,0,4.486,1.715,39.909,39.909,0,0,0,6.53.468,39.153,39.153,0,0,0,10.964-1.732V243.521H224.963v4.157h4.4v1.8a31.1,31.1,0,0,1-5.231.589c-7.829.208-8.366-2.84-8.366-6.079,0-2.875,1-5.248,4.625-5.716a42.456,42.456,0,0,1,13.51.849" transform="translate(-154.4 -232.527)"/>
      <path id="Path_25" data-name="Path 25" d="M353.794,379.9v2.806h-3.343V379.9H349.1v6.322h1.351v-2.944h3.343v2.269a.682.682,0,0,0,.087.346.6.6,0,0,0,.208.208.765.765,0,0,0,.277.1,1.4,1.4,0,0,0,.26.017h.52V379.9Z" transform="translate(-315.378 -354.375)"/>
      <path id="Path_26" data-name="Path 26" d="M490.5,386.122V379.8h-1.316l-2.65,4.676-2.7-4.676H482.5v6.322h.693v-4.9l2.841,4.9h.346l2.771-4.867v4.174a.682.682,0,0,0,.087.346.6.6,0,0,0,.208.208.765.765,0,0,0,.277.1,1.4,1.4,0,0,0,.26.017h.52Z" transform="translate(-425.672 -354.292)"/>
      <path id="Path_27" data-name="Path 27" d="M543.14,385.46,539.762,379h-.4l-3.464,6.46h.8l1.074-2.009h2.46l-.346-.641h-1.767l1.143-2.13,2.234,4.278a.8.8,0,0,0,.329.381.865.865,0,0,0,.5.121Z" transform="translate(-469.823 -353.631)"/>
      <path id="Path_28" data-name="Path 28" d="M590.685,379.9a.339.339,0,0,0-.121.017.23.23,0,0,0-.138.052.335.335,0,0,0-.156.277v4.07l-4.5-4.417H584.9v6.322h.8v-4.763l4.573,4.607a.966.966,0,0,0,.693.156h.087V379.9Z" transform="translate(-510.336 -354.375)"/>
      <path id="Path_29" data-name="Path 29" d="M395.162,379.1h-.4l-3.464,6.46h.8l2.563-4.78,1.091,2.113h-1.784l-.346.641H396.1l.779,1.507a.8.8,0,0,0,.329.381.864.864,0,0,0,.5.121h.831Z" transform="translate(-350.268 -353.713)"/>
      <path id="Path_30" data-name="Path 30" d="M444.536,385.7l-1.992-2.373h-.693v2.892H440.5V379.9h2.477a4.481,4.481,0,0,1,1.7.312,1.444,1.444,0,0,1,.953,1.368c0,.589-.364,1.264-1.645,1.611l2.581,3.014h-1.039a1.554,1.554,0,0,1-.468-.087,1.432,1.432,0,0,1-.52-.416m-2.7-5.248v2.39h.624a2.209,2.209,0,0,0,1.022-.225,1.1,1.1,0,0,0-.052-2.061,1.672,1.672,0,0,0-.693-.121h-.9Z" transform="translate(-390.947 -354.374)"/>
      <path id="Path_31" data-name="Path 31" d="M318.2,399.3h.208v1.212a.878.878,0,0,1,.675-.294.833.833,0,0,1,.849.9.973.973,0,0,1-1.057,1.022A1.683,1.683,0,0,1,318.2,402Zm.208,2.563a1.171,1.171,0,0,0,.468.087.811.811,0,0,0,.849-.814.682.682,0,0,0-.658-.745.835.835,0,0,0-.658.364Z" transform="translate(-289.829 -370.415)"/>
    </g>
    <path id="Path_32" data-name="Path 32" d="M330.046,407.689h-.208l.658-1.316-.8-1.472h.208l.693,1.282.658-1.282h.208Z" transform="translate(-299.338 -375.045)"/>
    <g id="Group_62" data-name="Group 62" transform="translate(81.249 1.658)">
      <path id="Path_33" data-name="Path 33" d="M624.8,244.715a1.257,1.257,0,0,1-.918-.381,1.338,1.338,0,0,1-.381-.935,1.256,1.256,0,0,1,.381-.918,1.3,1.3,0,0,1,1.836,0,1.329,1.329,0,0,1,.381.918,1.229,1.229,0,0,1-.381.918,1.274,1.274,0,0,1-.918.4m0-2.39a1.065,1.065,0,1,0,.762.312,1.018,1.018,0,0,0-.762-.312m.329,1.8v-.017l-.017-.069v-.121c0-.156-.035-.26-.121-.294a.487.487,0,0,0-.26-.052h-.173v.554h-.294v-1.455h.52a1.164,1.164,0,0,1,.4.052.37.37,0,0,1,.225.381.3.3,0,0,1-.156.294l-.1.052a.277.277,0,0,1,.156.121.408.408,0,0,1,.087.225v.208c0,.035,0,.052.017.069l.017.052Zm-.381-.779a.679.679,0,0,0,.225-.035.187.187,0,0,0,.121-.191.223.223,0,0,0-.087-.191.592.592,0,0,0-.294-.052h-.19v.45h.225Z" transform="translate(-623.5 -242.1)"/>
    </g>
  </g>
</svg>
