<?xml version="1.0" encoding="utf-8"?>
<!-- Generator: Adobe Illustrator 19.2.1, SVG Export Plug-In . SVG Version: 6.00 Build 0)  -->
<svg version="1.1" id="layer" xmlns="http://www.w3.org/2000/svg" xmlns:xlink="http://www.w3.org/1999/xlink" x="0px" y="0px"
	 viewBox="0 0 652 652" style="enable-background:new 0 0 652 652;" xml:space="preserve">
<g>
	<path d="M91.1,292.8c1.1,0.4,2.2,0.9,3.2,1.4c6.4,3.5,11,8.9,13.2,15.7c6.6-2.6,10.8-7.4,12.5-10.8c1.1-2.2,1.6-4.5,1.6-6.6
		c0-1.6-0.3-3.1-1-4.5c-1.4-2.7-4.2-4.7-8.3-5.7l-2.6-0.6l0.9-2.5c0.6-1.8,0.9-3.4,0.9-4.8c0-2.2-0.7-4.1-2-5.7
		c-2.3-2.8-6.9-4.5-11.7-4.5c-1.1,0-2.1,0.1-3,0.3c-3.8,0.8-7.5,2.6-10.6,4.9c3.1,3.4,5.3,7.4,6.5,11.8
		C91.7,284.7,91.8,288.7,91.1,292.8"/>
	<path d="M92,298.5c-0.7-0.4-1.4-0.7-2.1-1c-1.2,3.5-2.9,6.6-5.1,9.4c2.7,2.1,5.7,3.6,8.6,4.2c1.7,0.4,3.5,0.5,5.2,0.5
		c1.5,0,2.9-0.2,4.3-0.4C101,305.8,97.2,301.4,92,298.5"/>
	<path d="M73.4,309.9c1.5-0.7,3-1.7,4.3-2.8l0.1-0.1c-2.6-2.8-4.5-6-5.8-9.4l-0.6,0.2c-3.7,1.5-6.9,3.8-9,6.4
		c-1.8,2.3-3.2,4.8-4.1,7.5C63.2,312.8,68.5,312.2,73.4,309.9"/>
	<path d="M98.5,316.5c-2.1,0-4.1-0.2-6.2-0.6c-3.8-0.8-7.6-2.8-11-5.5l-0.5,0.4c-1.7,1.4-3.5,2.6-5.4,3.5c-4,1.9-8.1,2.9-12.2,2.9
		c-2,0-4.1-0.2-6.1-0.7l0,0.2c-0.8,6,0.6,11.9,3.8,16c1.5,1.9,3.3,3.4,5.1,4.4c1.5,0.7,3,1.1,4.4,1.1c3.9,0,6.7-1.3,9-3.9l1.7-2
		l1.9,1.9c1.3,1.3,2.6,2.3,3.9,3c2,1,4,1.2,6,0.8c4.9-1.2,9.2-6.8,10.4-11.3c0.9-3.4,1-7,0.6-10.5
		C102.1,316.3,100.3,316.5,98.5,316.5"/>
	<path d="M85.2,296.2c-1.2-0.2-2.6-0.3-4-0.3c-1.5,0-3.1,0.2-4.6,0.4c1.1,2.6,2.6,5,4.5,7.2C82.9,301.4,84.2,298.9,85.2,296.2"/>
	<path d="M69.6,293.3l0.9-0.3c-0.4-2-0.6-4-0.5-5.9c0.2-6.7,2.6-12.8,7-17.7c-4.8-3.6-10.1-4.9-13.6-4.9l-0.5,0
		c-2.4,0.1-4.7,0.6-6.6,1.6c-1.4,0.8-2.6,1.7-3.5,2.9c-1.8,2.5-2.2,5.9-1.2,10l0.6,2.6l-2.6,0.4c-1.9,0.3-3.4,0.8-4.7,1.4
		c-2,1-3.4,2.5-4.1,4.4c-1.9,4.7,0.1,11.4,3.1,15c2.6,3.1,6,5.7,9.7,7.3c1.1-3.2,2.7-6.2,4.9-8.9C61.2,297.9,65.1,295.1,69.6,293.3"
		/>
	<path d="M75.3,291.6c3.7-0.7,7.5-0.8,11-0.1l0.1,0c0.5-3.1,0.4-6.3-0.4-9c-1.1-3.7-2.9-7-5.4-9.8c-3.5,4-5.5,9-5.7,14.5
		C74.9,288.7,75,290.1,75.3,291.6"/>
	<path d="M80.9,232.7c-36.5,0-66,29.6-66,66s29.6,66,66,66c36.5,0,66-29.6,66-66S117.4,232.7,80.9,232.7 M124.4,301.2
		c-2.7,5.7-8.9,11-15.7,13.5c0.7,4.3,0.6,8.8-0.6,13c-1.5,5.9-6.9,13-13.9,14.8c-3.1,0.8-6.3,0.4-9.3-1.1c-1.1-0.6-2.3-1.3-3.4-2.2
		c-2.9,2.6-6.6,3.8-11,3.8c-2.2,0-4.5-0.5-6.6-1.6c-2.5-1.2-4.9-3.2-6.8-5.7c-2.3-3-6.1-9.6-4.8-19.7l0.2-0.9c-4.8-2-9-5.1-12.2-9
		c-3.9-4.7-6.5-13.2-3.9-19.9c1.2-3,3.4-5.4,6.4-6.9c1.1-0.6,2.4-1.1,3.8-1.4c-0.6-4.5,0.2-8.4,2.5-11.5c1.3-1.8,3.1-3.3,5.2-4.4
		c2.5-1.3,5.5-2.1,8.6-2.2l0.7,0c4.5,0,11.2,1.8,17.1,6.5c3.9-3.1,8.4-5.3,13.2-6.3c1.3-0.3,2.6-0.4,4.1-0.4
		c4.9,0,11.5,1.6,15.4,6.2c2.1,2.4,3.2,5.5,3.2,8.9c0,1.3-0.2,2.6-0.5,4c4.3,1.5,7.4,4.1,9.1,7.5c1,2,1.5,4.2,1.5,6.6
		C126.5,295.4,125.8,298.4,124.4,301.2"/>
	<path d="M329.8,235.8h38.7v46.6h4.1l48.8-46.6h52.7l-68.4,62l76.4,64.8h-53.7l-55.8-48.7h-4.1v48.7h-38.7V235.8z M215.2,312.8h43.5
		l-22.1-47.6L215.2,312.8z M215.2,312.8h43.5l-22.1-47.6L215.2,312.8z M215.2,312.8h43.5l-22.1-47.6L215.2,312.8z M214.5,235.8h44.3
		l61,126.7H282l-10.6-22.4h-69l-10,22.4h-38L214.5,235.8z M214.5,235.8h44.3l61,126.7H282l-10.6-22.4h-69l-10,22.4h-38L214.5,235.8z
		 M214.5,235.8h44.3l61,126.7H282l-10.6-22.4h-69l-10,22.4h-38L214.5,235.8z M613.4,270.6l5-31.7c-14.3-2.9-35.2-5.8-53.6-6.3
		c-21.4-0.5-39.7,1.7-45.3,2.7c-10.4,1.8-19.1,5.2-26,10.2c-6.9,5-12,11.8-15.4,20.4c-3.4,8.7-5.1,19.7-5.1,33.2
		c0,13.5,1.7,24.5,5.1,33c3.4,8.5,8.5,15.2,15.3,20.1c6.8,4.8,15.5,8.2,25.9,9.9c10.4,1.8,23.6,2.7,37.7,2.7
		c27.2,0,57.6-7.6,63.3-10v-58.8h-58.5V320h25.4v10.4c-3.3,0.8-16.9,3.1-30.2,3.4c-45.2,1.2-48.3-16.4-48.3-35.1
		c0-16.6,5.8-30.3,26.7-33S582.9,264.4,613.4,270.6"/>
	<path d="M376.2,379.9v16.2h-19.3v-16.2h-7.8v36.5h7.8v-17h19.3l0,13.1c0,0.8,0.2,1.5,0.5,2c0.3,0.5,0.7,0.9,1.2,1.2
		c0.5,0.3,1,0.5,1.6,0.6c0.6,0.1,1,0.1,1.5,0.1h3v-36.5H376.2z"/>
	<path d="M528.7,416.3v-36.5h-7.6l-15.3,27l-15.6-27h-7.7v36.5h4v-28.3l16.4,28.3h2l16-28.1v24.1c0,0.8,0.2,1.5,0.5,2
		c0.3,0.5,0.7,0.9,1.2,1.2c0.5,0.3,1,0.5,1.6,0.6c0.6,0.1,1,0.1,1.5,0.1H528.7z"/>
	<path d="M577.7,416.3l-19.5-37.3h-2.3l-20,37.3h4.6l6.2-11.6h14.2l-2-3.7h-10.2l6.6-12.3l12.9,24.7c0.5,1,1.1,1.8,1.9,2.2
		c0.7,0.5,1.7,0.7,2.9,0.7H577.7z"/>
	<path d="M618.3,379.9c-0.2,0-0.4,0-0.7,0.1c-0.3,0-0.5,0.1-0.8,0.3c-0.3,0.2-0.5,0.4-0.6,0.6c-0.2,0.3-0.3,0.6-0.3,1v23.5l-26-25.5
		h-5v36.5h4.6v-27.5l26.4,26.6c1.1,1,2.6,0.9,4,0.9h0.5v-36.5H618.3z"/>
	<path d="M413.6,379.1h-2.3l-20,37.3h4.6l14.8-27.6L417,401h-10.3l-2,3.7H419l4.5,8.7c0.5,1,1.1,1.8,1.9,2.2
		c0.7,0.5,1.7,0.7,2.9,0.7h4.8L413.6,379.1z"/>
	<path d="M463.8,413.4l-11.5-13.7h-4v16.7h-7.8v-36.5h14.3c0,0,5.9-0.1,9.8,1.8c3.9,1.9,5.5,4.5,5.5,7.9c0,3.4-2.1,7.3-9.5,9.3
		l14.9,17.4h-6c0,0-1.3,0-2.7-0.5C465.4,415.4,463.8,413.4,463.8,413.4 M448.2,383.1v13.8h3.6c0,0,3.6,0.1,5.9-1.3
		c2.3-1.3,4-3.1,4-5.8c0-2.7-1.8-5.1-4.3-6.1c0,0-1.4-0.7-4-0.7H448.2z"/>
	<path d="M318.2,399.3h1.2v7c1.1-1.1,2.2-1.7,3.9-1.7c2.9,0,4.9,2.1,4.9,5.2c0,3.6-2.4,5.9-6.1,5.9c-1.3,0-2.4-0.2-3.9-0.8V399.3z
		 M319.4,414.1c1,0.4,1.8,0.5,2.7,0.5c2.8,0,4.9-2,4.9-4.7c0-2.5-1.6-4.3-3.8-4.3c-1.4,0-2.5,0.6-3.8,2.1V414.1z"/>
</g>
<polygon points="331.7,421 330.5,421 334.3,413.4 329.7,404.9 330.9,404.9 334.9,412.3 338.7,404.9 339.9,404.9 "/>
<g>
	<path d="M631,257.2c-2,0-3.8-0.7-5.3-2.2c-1.4-1.5-2.2-3.3-2.2-5.4c0-2,0.7-3.8,2.2-5.3c1.4-1.5,3.2-2.2,5.3-2.2
		c2.1,0,3.9,0.7,5.3,2.2c1.4,1.5,2.2,3.3,2.2,5.3c0,2.1-0.7,3.8-2.2,5.3C634.8,256.4,633,257.2,631,257.2 M631,243.4
		c-1.7,0-3.2,0.6-4.4,1.8c-1.2,1.2-1.8,2.7-1.8,4.4c0,1.7,0.6,3.2,1.8,4.4c1.2,1.2,2.7,1.8,4.4,1.8c1.7,0,3.2-0.6,4.4-1.8
		c1.2-1.2,1.8-2.7,1.8-4.4c0-1.7-0.6-3.2-1.8-4.4C634.2,244,632.8,243.4,631,243.4 M632.9,253.8l0-0.1l-0.1-0.4v-0.7
		c0-0.9-0.2-1.5-0.7-1.7c-0.3-0.2-0.8-0.3-1.5-0.3h-1v3.2h-1.7v-8.4h3c1,0,1.8,0.1,2.3,0.3c0.9,0.4,1.3,1.1,1.3,2.2
		c0,0.8-0.3,1.4-0.9,1.7c-0.2,0.1-0.4,0.2-0.6,0.3c0.4,0.1,0.7,0.4,0.9,0.7c0.3,0.4,0.5,0.9,0.5,1.3v0.6c0,0.2,0,0.4,0,0.6
		c0,0.2,0,0.3,0.1,0.4l0.1,0.3H632.9z M630.7,249.3c0.6,0,1-0.1,1.3-0.2c0.5-0.2,0.7-0.6,0.7-1.1c0-0.5-0.2-0.9-0.5-1.1
		c-0.3-0.2-0.9-0.3-1.7-0.3h-1.1v2.6H630.7z"/>
</g>
</svg>
