<svg xmlns="http://www.w3.org/2000/svg" width="39.42" height="39.421" viewBox="0 0 39.42 39.421">
  <g id="beats-logo" transform="translate(0 0)">
    <path id="path3005" d="M-2145.2-313.715A19.71,19.71,0,0,1-2164.907-294a19.71,19.71,0,0,1-19.71-19.711,19.71,19.71,0,0,1,19.71-19.711A19.71,19.71,0,0,1-2145.2-313.715Z" transform="translate(2184.617 333.426)" fill="#fff"/>
    <path id="path22" d="M291.1,285.06a6.008,6.008,0,1,0-6.008,6.008,6.008,6.008,0,0,0,6.008-6.008" transform="translate(-265.378 -265.349)" fill="#ed1c24"/>
    <path id="path24" d="M20.711.967a19.706,19.706,0,0,0-5.412.759V12.379a9.907,9.907,0,1,1-4.5,8.3c0-.176.005-.351.014-.525l-.014.011V3.641A19.705,19.705,0,1,0,20.711.967" transform="translate(-1 -0.966)" fill="#ed1c24"/>
  </g>
</svg>
