<svg xmlns="http://www.w3.org/2000/svg" width="128.694" height="15.492" viewBox="0 0 128.694 15.492">
  <path id="path108-1" d="M178.31,73.849V71.28H147.094l-8.94,15.487h21.669l1.486-2.569H148.733l2.242-3.883H163.55l1.488-2.578H152.463l2.244-3.888Zm-35.016-.42a1.463,1.463,0,0,0-1.283-2.149H124.963a3.681,3.681,0,0,0-3.152,1.824c-.6,1.04-2.288,3.978-2.894,5.02a1.447,1.447,0,0,0,1.259,2.191h10.048s-1.516,2.62-1.8,3.121a1.451,1.451,0,0,1-1.281.76h-1.563a.622.622,0,0,1-.547-.9c.187-.341.6-1.04.6-1.04h-9.105s-.7,1.22-1.321,2.288a1.469,1.469,0,0,0,1.248,2.224h17.017a3.693,3.693,0,0,0,3.206-1.866c.646-1.13,2.171-3.784,2.828-4.916a1.451,1.451,0,0,0-1.22-2.248H128.239l1.855-3.215a1.464,1.464,0,0,1,1.24-.672H132.9a.613.613,0,0,1,.563.851c-.16.292-.631,1.092-.631,1.092h9.1s.859-1.486,1.365-2.363m-24.247.037a1.461,1.461,0,0,0-1.288-2.187h-17a3.725,3.725,0,0,0-3.176,1.807c-.661,1.141-6.055,10.49-6.641,11.5a1.46,1.46,0,0,0,1.266,2.178h17.032a3.712,3.712,0,0,0,3.176-1.809l6.633-11.492m-9.852,1.3c-.248.42-4.769,8.257-5.02,8.7a1.475,1.475,0,0,1-1.266.734h-1.582a.619.619,0,0,1-.545-.9c.2-.336,4.765-8.248,5.044-8.734a1.47,1.47,0,0,1,1.259-.714h1.585a.608.608,0,0,1,.525.916m-14.4-1.29a1.458,1.458,0,0,0-1.253-2.2H74.334L66.875,84.2H49.616v2.574l35.383,0A3.681,3.681,0,0,0,88.19,84.93c.677-1.174,1.743-3.031,2.2-3.826a1.467,1.467,0,0,0-.875-2.079,3.736,3.736,0,0,0,3.123-1.8c.618-1.062,1.593-2.774,2.156-3.745M78.213,80.314h4.6a.609.609,0,0,1,.53.91c-.226.4-1,1.727-1.3,2.253a1.429,1.429,0,0,1-1.253.721h-4.82Zm8.855-5.554c-.226.4-1,1.727-1.3,2.253a1.425,1.425,0,0,1-1.253.721H79.7l2.244-3.886h4.6a.609.609,0,0,1,.53.912" transform="translate(-49.616 -71.28)"/>
</svg>
