<?xml version="1.0" encoding="UTF-8" standalone="no"?>
<!-- Created with Inkscape (http://www.inkscape.org/) -->

<svg
   xmlns:dc="http://purl.org/dc/elements/1.1/"
   xmlns:cc="http://creativecommons.org/ns#"
   xmlns:rdf="http://www.w3.org/1999/02/22-rdf-syntax-ns#"
   xmlns:svg="http://www.w3.org/2000/svg"
   xmlns="http://www.w3.org/2000/svg"
   xmlns:sodipodi="http://sodipodi.sourceforge.net/DTD/sodipodi-0.dtd"
   xmlns:inkscape="http://www.inkscape.org/namespaces/inkscape"
   width="210mm"
   height="297mm"
   viewBox="0 0 210 297"
   version="1.1"
   id="svg950"
   inkscape:version="0.92.2 (5c3e80d, 2017-08-06)"
   sodipodi:docname="bose-logo.svg">
  <defs
     id="defs944" />
  <sodipodi:namedview
     id="base"
     pagecolor="#ffffff"
     bordercolor="#666666"
     borderopacity="1.0"
     inkscape:pageopacity="0.0"
     inkscape:pageshadow="2"
     inkscape:zoom="0.35"
     inkscape:cx="-64.285714"
     inkscape:cy="560"
     inkscape:document-units="mm"
     inkscape:current-layer="layer1"
     showgrid="false"
     inkscape:window-width="1600"
     inkscape:window-height="837"
     inkscape:window-x="-8"
     inkscape:window-y="-8"
     inkscape:window-maximized="1" />
  <metadata
     id="metadata947">
    <rdf:RDF>
      <cc:Work
         rdf:about="">
        <dc:format>image/svg+xml</dc:format>
        <dc:type
           rdf:resource="http://purl.org/dc/dcmitype/StillImage" />
        <dc:title></dc:title>
      </cc:Work>
    </rdf:RDF>
  </metadata>
  <g
     inkscape:label="Layer 1"
     inkscape:groupmode="layer"
     id="layer1">
    <path
       d="M 43.1417,283.93762 H 176.84044 V 151.25044 H 43.1417 Z"
       style="fill:#000000;fill-opacity:1;fill-rule:nonzero;stroke:none;stroke-width:1.84259593"
       id="path96"
       inkscape:connector-curvature="0"
       inkscape:export-filename="C:\Users\suitedoalex\sites\bose-logo-7.png"
       inkscape:export-xdpi="37.995872"
       inkscape:export-ydpi="37.995872" />
    <g
       id="g106"
       transform="matrix(1.842596,0,0,-1.842596,164.14845,213.70947)"
       inkscape:export-filename="C:\Users\suitedoalex\sites\bose-logo-7.png"
       inkscape:export-xdpi="37.995872"
       inkscape:export-ydpi="37.995872">
      <path
         d="m 0,0 v 1.169 h -14.204 l -4.068,-7.047 h 9.86 l 0.676,1.169 h -5.722 l 1.02,1.767 h 5.722 l 0.677,1.173 h -5.722 L -10.74,0 Z m -15.933,0.191 c 0.23,0.398 -0.055,0.978 -0.584,0.978 h -7.757 c -0.622,0 -1.161,-0.357 -1.434,-0.83 -0.272,-0.473 -1.041,-1.81 -1.317,-2.284 -0.278,-0.474 0.085,-0.997 0.573,-0.997 h 4.572 c 0,0 -0.69,-1.192 -0.821,-1.42 -0.131,-0.228 -0.347,-0.346 -0.583,-0.346 h -0.711 c -0.235,0 -0.334,0.256 -0.249,0.41 0.085,0.155 0.273,0.473 0.273,0.473 h -4.143 c 0,0 -0.32,-0.555 -0.601,-1.041 -0.281,-0.486 0.093,-1.012 0.568,-1.012 h 7.743 c 0.617,0 1.164,0.335 1.459,0.849 0.294,0.514 0.988,1.722 1.287,2.237 0.3,0.514 -0.079,1.023 -0.555,1.023 h -4.57 c 0,0 0.747,1.295 0.844,1.463 0.096,0.167 0.317,0.306 0.564,0.306 h 0.713 c 0.232,0 0.33,-0.254 0.256,-0.387 -0.073,-0.133 -0.287,-0.497 -0.287,-0.497 h 4.139 c 0,0 0.391,0.676 0.621,1.075 M -26.966,0.174 c 0.259,0.45 -0.073,0.995 -0.586,0.995 h -7.736 c -0.563,0 -1.144,-0.303 -1.445,-0.822 -0.301,-0.519 -2.755,-4.773 -3.022,-5.234 -0.267,-0.462 0.099,-0.991 0.576,-0.991 h 7.75 c 0.624,0 1.172,0.352 1.445,0.823 0.272,0.471 2.759,4.78 3.018,5.229 m -4.483,-0.591 c -0.113,-0.191 -2.17,-3.757 -2.284,-3.957 -0.114,-0.2 -0.337,-0.334 -0.576,-0.334 h -0.72 c -0.231,0 -0.336,0.254 -0.248,0.409 0.089,0.153 2.168,3.753 2.295,3.974 0.127,0.221 0.368,0.325 0.573,0.325 h 0.721 c 0.208,0 0.35,-0.226 0.239,-0.417 m -6.552,0.587 c 0.257,0.441 -0.058,0.999 -0.57,0.999 h -8.74 l -3.394,-5.878 h -7.853 V -5.88 c 0,0 15.514,0.002 16.1,0.002 0.586,0 1.142,0.304 1.452,0.836 0.308,0.534 0.793,1.379 1.001,1.741 0.209,0.362 -0.012,0.825 -0.398,0.946 0.568,0 1.141,0.337 1.421,0.821 0.281,0.483 0.725,1.262 0.981,1.704 m -7.545,-3.112 h 2.093 c 0.217,0 0.344,-0.233 0.241,-0.414 -0.103,-0.182 -0.454,-0.786 -0.591,-1.025 -0.138,-0.238 -0.371,-0.328 -0.57,-0.328 h -2.193 z m 4.029,2.527 c -0.103,-0.183 -0.453,-0.786 -0.591,-1.025 -0.138,-0.239 -0.371,-0.328 -0.57,-0.328 h -2.193 L -43.85,0 h 2.092 c 0.218,0 0.344,-0.233 0.241,-0.415"
         style="fill:#f4f4f4;fill-opacity:1;fill-rule:nonzero;stroke:none"
         id="path108"
         inkscape:connector-curvature="0" />
    </g>
    <path
       d="M 157.51485,73.433575 V 71.27958 h -26.17224 l -7.49568,12.984774 h 18.16799 l 1.2456,-2.153995 h -10.54333 l 1.87945,-3.255867 h 10.54333 l 1.24744,-2.161365 h -10.54334 l 1.88129,-3.259552 z m -29.35809,-0.351936 c 0.4238,-0.733353 -0.10134,-1.802059 -1.07607,-1.802059 h -14.29302 c -1.1461,0 -2.13926,0.657807 -2.64228,1.529355 -0.50119,0.871548 -1.91815,3.335098 -2.4267,4.208489 -0.51225,0.87339 0.15662,1.837068 1.05581,1.837068 h 8.42434 c 0,0 -1.27139,2.196375 -1.51277,2.616487 -0.24138,0.420111 -0.63938,0.637538 -1.07423,0.637538 h -1.31009 c -0.43301,0 -0.61542,-0.471705 -0.4588,-0.755464 0.15662,-0.285603 0.50302,-0.871549 0.50302,-0.871549 h -7.63387 c 0,0 -0.58963,1.022641 -1.1074,1.918143 -0.51777,0.895502 0.17136,1.864707 1.04659,1.864707 h 14.26722 c 1.13689,0 2.14479,-0.61727 2.68835,-1.564364 0.54173,-0.947094 1.82049,-3.17295 2.37142,-4.121887 0.55278,-0.947095 -0.14556,-1.884976 -1.02264,-1.884976 h -8.42066 c 0,0 1.37642,-2.386162 1.55515,-2.695718 0.17689,-0.307713 0.5841,-0.563834 1.03922,-0.563834 h 1.31377 c 0.42749,0 0.60806,0.468019 0.47171,0.713084 -0.13451,0.245066 -0.52883,0.91577 -0.52883,0.91577 h 7.62651 c 0,0 0.72046,-1.245594 1.14425,-1.98079 m -20.32936,0.03132 c 0.47723,-0.829168 -0.13451,-1.833383 -1.07976,-1.833383 H 92.493315 c -1.037381,0 -2.10793,0.558307 -2.66255,1.514614 -0.554622,0.956307 -5.076351,8.794711 -5.568325,9.644147 -0.491974,0.85128 0.182417,1.826013 1.061336,1.826013 h 14.280118 c 1.149776,0 2.159526,-0.648594 2.662546,-1.516457 0.50119,-0.867862 5.08373,-8.807608 5.56096,-9.634934 m -8.260357,1.088974 c -0.208214,0.351936 -3.998433,6.922633 -4.208489,7.291153 -0.210058,0.368519 -0.620956,0.615427 -1.061336,0.615427 h -1.326669 c -0.42564,0 -0.619114,-0.46802 -0.456964,-0.753622 0.163991,-0.281917 3.994748,-6.915263 4.228759,-7.322477 0.234008,-0.407213 0.678074,-0.598843 1.055806,-0.598843 h 1.328513 c 0.383259,0 0.644908,0.416426 0.44038,0.768362 m -12.072689,-1.0816 C 87.9679,72.307749 87.387484,71.27958 86.444072,71.27958 H 70.339784 L 64.086013,82.110359 H 49.616106 v 2.15768 c 0,0 28.586037,-0.0037 29.665796,-0.0037 1.079762,0 2.104245,-0.560149 2.675451,-1.540411 0.567518,-0.983946 1.461177,-2.540939 1.844437,-3.207959 0.385103,-0.66702 -0.02212,-1.520142 -0.733351,-1.743096 1.046594,0 2.1024,-0.620955 2.618327,-1.512771 0.517771,-0.889974 1.335881,-2.325357 1.807588,-3.139784 m -13.902388,5.734174 h 3.856553 c 0.399844,0 0.633855,0.429325 0.444067,0.762835 -0.189789,0.335352 -0.836539,1.44828 -1.088975,1.888661 -0.254278,0.438538 -0.683604,0.604371 -1.05028,0.604371 h -4.040813 z m 7.423819,-4.65624 c -0.189788,0.337195 -0.834696,1.44828 -1.088974,1.888661 -0.254278,0.440381 -0.683602,0.604371 -1.05028,0.604371 h -4.040812 l 1.881291,-3.257709 h 3.854709 c 0.401688,0 0.633855,0.429325 0.444066,0.764677"
       style="fill:#000000;fill-opacity:1;fill-rule:nonzero;stroke:none;stroke-width:1.84259593"
       id="path108-1"
       inkscape:connector-curvature="0"
       inkscape:export-filename="C:\Users\suitedoalex\sites\bose-logo-8.png"
       inkscape:export-xdpi="23.540588"
       inkscape:export-ydpi="23.540588" />
  </g>
</svg>
