<svg xmlns="http://www.w3.org/2000/svg" viewBox="0 0 120.597 30.803">
  <g id="Group_265" data-name="Group 265" transform="translate(-627 -1755)">
    <g id="headphone-logo-icon" transform="translate(627 1755)">
      <g id="Group_10" data-name="Group 10" transform="translate(0 0)">
        <path id="Path_3" data-name="Path 3" d="M62.743,145.77v8.7a.938.938,0,0,0,1.875,0v-8.7a.938.938,0,1,0-1.875,0Z" transform="translate(-56.461 -131.419)"/>
        <path id="Path_4" data-name="Path 4" d="M2.924,46.8H5.242V35.2a1.473,1.473,0,0,0,.016-.168,9,9,0,1,1,18.006,0,1.465,1.465,0,0,0,.023.225V46.8H25.6a2.975,2.975,0,0,0,2.923-3.024V37.731a3.012,3.012,0,0,0-2.11-2.9,12.156,12.156,0,0,0-24.311,0A3.01,3.01,0,0,0,0,37.732V43.78A2.976,2.976,0,0,0,2.924,46.8Z" transform="translate(0 -22.804)"/>
        <path id="Path_5" data-name="Path 5" d="M203.454,145.77v8.7a.938.938,0,1,0,1.875,0v-8.7a.938.938,0,1,0-1.875,0Z" transform="translate(-183.082 -131.419)"/>
      </g>
    </g>
    <path id="Path_63" data-name="Path 63" d="M13.878-11.5a1.91,1.91,0,0,1,1.391.486,1.8,1.8,0,0,1,.5,1.35,2.562,2.562,0,0,1-.041.446,2.787,2.787,0,0,1-.094.391q-.351-.054-.783-.094t-1.026-.041a13.946,13.946,0,0,0-2.349.2q-1.188.2-2.268.338Q8.586-6.99,8.073-5.651T7.2-3.2Q6.831-2.1,6.629-1.284A7.657,7.657,0,0,0,6.4-.068q2.187-.5,4.414-.85A30.03,30.03,0,0,1,15.5-1.269,4.973,4.973,0,0,1,16-.3,3.108,3.108,0,0,1,16.2.83v.342a1.3,1.3,0,0,1-.054.367H10.679a15.16,15.16,0,0,0-1.606.086q-.81.086-1.715.23T5.319,2.2a5.445,5.445,0,0,1-2.4-2.376Q3.375-1.149,4.2-3.137T6.291-8.451A2.31,2.31,0,0,1,4.7-9.8a2.378,2.378,0,0,1,.783-.337q.648-.2,1.593-.419.4-1.053.688-1.836t.5-1.472q.216-.689.391-1.35t.337-1.444a2.157,2.157,0,0,1-1.485-.48,1.59,1.59,0,0,1-.54-1.247,2.434,2.434,0,0,1,.067-.521,4.118,4.118,0,0,1,.148-.521q.54.041,1.04.041h4.5a23.893,23.893,0,0,0,2.687-.137q1.2-.137,2.065-.257a10.427,10.427,0,0,1,1.323-.12,1.381,1.381,0,0,1,1.107.649,4.606,4.606,0,0,1,.729,1.839,10.7,10.7,0,0,0-1.364-.112h-.931a22.822,22.822,0,0,0-2.713.148q-1.229.148-2.363.309-.162.242-.365.618T12.366-15.4q-.324.672-.8,1.694t-1.148,2.554q1.026-.162,1.931-.257A15.084,15.084,0,0,1,13.878-11.5Zm13.959.594a2.579,2.579,0,0,1,.634.094,3.363,3.363,0,0,1,.662.243,2.816,2.816,0,0,1,.5.311q.2.162.2.3-.54,1.134-1,2.282t-.783,2.2a18.641,18.641,0,0,0-.5,1.971,8.648,8.648,0,0,0-.175,1.593A4.13,4.13,0,0,0,27.54-.662a1.21,1.21,0,0,0,.54.716,2.788,2.788,0,0,1-.837.351,3.651,3.651,0,0,1-.918.135q-1.458,0-1.458-2A12.685,12.685,0,0,1,25.893-5.67a16.381,16.381,0,0,1-1.242,2.325A16.481,16.481,0,0,1,23.22-1.422,8.485,8.485,0,0,1,21.749-.065a3.464,3.464,0,0,1-1.363.632,1.886,1.886,0,0,1-1.62-.908,4.021,4.021,0,0,1-.621-2.318,8.9,8.9,0,0,1,.648-3.2,14.354,14.354,0,0,1,1.66-3.118,11.817,11.817,0,0,1,2.2-2.4,3.7,3.7,0,0,1,2.3-.963,2.132,2.132,0,0,1,.607.323,4.712,4.712,0,0,1,.648.566,4.337,4.337,0,0,1,.527.66,1.425,1.425,0,0,1,.243.579,4.873,4.873,0,0,0-2.227,1.05,10.956,10.956,0,0,0-2.079,2.141,12.564,12.564,0,0,0-1.526,2.68,6.972,6.972,0,0,0-.594,2.667.6.6,0,0,0,.378.646,3.746,3.746,0,0,0,1.809-1.337,25.808,25.808,0,0,0,2.484-3.632q.27-.486.607-1.08t.688-1.242q.351-.648.689-1.309T27.837-10.908ZM30.564-.54q.135-.783.472-2.065t.8-2.727q.459-1.444.972-2.9t1-2.619a12.465,12.465,0,0,1,.621-1.309,3.747,3.747,0,0,1,.594-.8,4.486,4.486,0,0,1,.783.189,5.97,5.97,0,0,1,.783.324,5.817,5.817,0,0,1,.675.391,2.343,2.343,0,0,1,.459.392,9.917,9.917,0,0,0-1.282,1.971,21.371,21.371,0,0,0-1.121,2.835q1.458-1.3,2.578-2.484a20.067,20.067,0,0,0,2.093-2.646.9.9,0,0,1,.567-.135,2.213,2.213,0,0,1,.729.122.888.888,0,0,1,.486.338A7.268,7.268,0,0,0,41.283-9.1a3.58,3.58,0,0,0,.351,1.782,2.043,2.043,0,0,1-.364.621,7.522,7.522,0,0,1-.743.864,4.319,4.319,0,0,1-1.3-1.039,4.423,4.423,0,0,1-.837-1.445,18.674,18.674,0,0,0-2.16,1.742,9.307,9.307,0,0,0-1.525,1.89,11.476,11.476,0,0,0-1.08,2.39,32.258,32.258,0,0,0-.85,3.213A2.056,2.056,0,0,1,32.2.743a4.959,4.959,0,0,1-.675-.365,4.663,4.663,0,0,1-.608-.459A1.248,1.248,0,0,1,30.564-.54ZM43.578,7.8a1.269,1.269,0,0,1-.81-1.026,1.647,1.647,0,0,0-.918-1.188q.216-1.375.486-2.776t.688-3.194q.419-1.793,1.053-4.178t1.606-5.782h-1.4a4.574,4.574,0,0,0-1,.108.788.788,0,0,1-.175-.3,1.05,1.05,0,0,1-.068-.351,8.152,8.152,0,0,1,1.107-.284q.837-.175,1.836-.311a23.793,23.793,0,0,1,1.485-3.685,14.985,14.985,0,0,1,1.809-2.794,7.758,7.758,0,0,1,2.052-1.782,4.345,4.345,0,0,1,2.187-.621,4.6,4.6,0,0,1,.621.04,3.648,3.648,0,0,0,.459.041,2.406,2.406,0,0,1,.648-.337,2.091,2.091,0,0,1,.7-.149,1.629,1.629,0,0,1,.837.351,7.285,7.285,0,0,0-.459,1.025,12.827,12.827,0,0,0-.4,1.267,5.7,5.7,0,0,1-1.431,2.588q-.3,0-.324-.782a5.646,5.646,0,0,0-.162-1.1,2.241,2.241,0,0,1-.149-.431,2.38,2.38,0,0,1-.04-.485,3.417,3.417,0,0,1,.027-.391q.027-.229.108-.768a1.527,1.527,0,0,0-1.013.563,8.311,8.311,0,0,0-1.161,1.6,23.162,23.162,0,0,0-1.229,2.453q-.621,1.421-1.188,3.137h2.268a1.158,1.158,0,0,1,.229.566,5.982,5.982,0,0,1,.121.919h-2.97q-1.026,3.038-1.917,5.806T45.5.653q-.7,2.338-1.2,4.18T43.578,7.8Zm15.093-8.4a2.1,2.1,0,0,1-.688-1.08,4.348,4.348,0,0,1-.176-1.107,3.09,3.09,0,0,1,.135-.972q-.108,0-.486.431T56.633-2.3q-.446.592-.877,1.157t-.648.834a4.214,4.214,0,0,1-.662.592,1.3,1.3,0,0,1-.5.242,3,3,0,0,1-.9-.15,3.655,3.655,0,0,1-.891-.421A3.143,3.143,0,0,1,51.422-.7,2.057,2.057,0,0,1,51-1.566q0-.756.04-1.242a7.128,7.128,0,0,1,.176-1.053,21.035,21.035,0,0,1,.715-2.322,25.293,25.293,0,0,1,1.093-2.551,17.739,17.739,0,0,1,1.39-2.349A7.136,7.136,0,0,1,56.052-12.8a4.645,4.645,0,0,1,.567.041,3.66,3.66,0,0,1,.661.149,5.108,5.108,0,0,1,.648.257,1.644,1.644,0,0,1,.527.391,21.518,21.518,0,0,0-1.229,1.809,30.435,30.435,0,0,0-2.2,4.428q-.135.3-.324.864t-.378,1.188q-.189.621-.311,1.215a4.99,4.99,0,0,0-.121.945.621.621,0,0,0,.067.324.937.937,0,0,0,.122.162,3.137,3.137,0,0,0,1.026-.891q.621-.729,1.728-2.241.27-.378.634-.864t.743-1.04q.378-.553.715-1.148A7.809,7.809,0,0,0,59.481-8.4q.108-.324.284-.769A9.335,9.335,0,0,1,60.2-10.1a10.611,10.611,0,0,1,.594-.986,5.53,5.53,0,0,1,.8-.931,3.868,3.868,0,0,1,.756.081,6.4,6.4,0,0,1,.77.2,3.84,3.84,0,0,1,.635.27,1.4,1.4,0,0,1,.405.311q-.486,1.188-1.08,2.349T61.965-6.521A19.542,19.542,0,0,0,61.1-4.293a7.126,7.126,0,0,0-.351,2.16,4.519,4.519,0,0,0,.095.986,5.264,5.264,0,0,0,.2.7q.108.284.2.472a.753.753,0,0,1,.095.324q0,.027-.054.081a.078.078,0,0,1-.054.027A1.932,1.932,0,0,1,60.75.378a5.869,5.869,0,0,1-.661-.23Q59.724,0,59.36-.189A7.287,7.287,0,0,1,58.671-.594ZM69.039-13.1a2.86,2.86,0,0,1,1.323.958A4.986,4.986,0,0,1,71.28-10.5a13,13,0,0,1-.918,1.755q-.621,1.026-1.242,2.092T68-4.631a5.063,5.063,0,0,0-.58,1.58q.432-.459.958-1.067T69.4-5.332q.5-.608.932-1.107t.675-.742q.513-.54,1.215-1.255A18.944,18.944,0,0,1,73.7-9.788a10.994,10.994,0,0,1,1.553-1.08,2.942,2.942,0,0,1,1.431-.445,1.594,1.594,0,0,1,1.174.472,4.109,4.109,0,0,1,.743.986q0,.054-.2.148a2.223,2.223,0,0,0-.58.527,10.7,10.7,0,0,0-.851,1.336q-.473.851-.918,1.836A15.009,15.009,0,0,0,75.3-4a6.759,6.759,0,0,0-.3,1.863,1.394,1.394,0,0,0,.175.864.648.648,0,0,0,.5.189,1.613,1.613,0,0,0,.621-.135,1.44,1.44,0,0,1,.513-.135.4.4,0,0,1,.176.229.881.881,0,0,1,.067.311,4.221,4.221,0,0,1-.513.378,6.919,6.919,0,0,1-.621.351,5.356,5.356,0,0,1-.634.27A1.71,1.71,0,0,1,74.736.3a3.086,3.086,0,0,1-1.283-.23,1.994,1.994,0,0,1-.783-.608,2.232,2.232,0,0,1-.392-.9,5.57,5.57,0,0,1-.108-1.12,5.568,5.568,0,0,1,.054-.729,6.6,6.6,0,0,1,.216-.959q.162-.553.459-1.323t.756-1.85a5.469,5.469,0,0,0-.729.378,6.935,6.935,0,0,0-1.458,1.161,32.781,32.781,0,0,0-2.282,2.4Q68.175-2.295,67.122-.837,66.528,0,66.083.581a3.04,3.04,0,0,1-.77.77,1.985,1.985,0,0,1-.837-.9,5.724,5.724,0,0,1-.4-1.2,7.213,7.213,0,0,1,.148-1.3q.148-.783.4-1.742t.634-2.012q.378-1.053.837-2.106a28.188,28.188,0,0,1,1.876-3.726A6.343,6.343,0,0,1,69.039-13.1Z" transform="translate(665 1778)"/>
  </g>
</svg>
