<svg id="JBL-0" xmlns="http://www.w3.org/2000/svg" width="48.339" height="27.132" viewBox="0 0 48.339 27.132">
  <path id="Path-5" d="M218.714,26.879h13.353V18.366h-4.408l0,4.654a2.271,2.271,0,0,1-4.541,0V.144h-4.407Z" transform="translate(-183.727 -0.144)" fill="#f30" fill-rule="evenodd"/>
  <path id="Combined-Shape-1" d="M116.427,26.879V.144h8.811a4.464,4.464,0,0,1,4.4,4.356V9.054c0,1.332-1.168,3.691-2.9,3.691a2.906,2.906,0,0,1,2.9,2.627v8.014c0,1.363-1.1,3.492-4.4,3.492Zm6.808-15.225c1.6,0,2-.27,2-4.461s-.4-4.524-2-4.524h-2.407v8.978Zm2,7.676c0-4.192,0-5.419-1.739-5.419h-2.67V24.683l2.67.005C125.238,24.688,125.238,23.519,125.238,19.33Z" transform="translate(-97.863 -0.144)" fill="#f30" fill-rule="evenodd"/>
  <path id="path11-2" d="M12.446,22.223c0,1.928,1.736,5.054,6.675,5.054S25.8,24.885,25.8,22.223V.144H21.391l0,22.846a2.293,2.293,0,0,1-2.268,2.295,2.269,2.269,0,0,1-2.272-2.264l0-4.654h-4.4Z" transform="translate(-10.576 -0.144)" fill="#f30" fill-rule="evenodd"/>
  <path id="path13-3" d="M12.833,68.937a2.54,2.54,0,1,0-2.55-2.539A2.547,2.547,0,0,0,12.833,68.937Z" transform="translate(-8.76 -53.627)" fill="#f30" fill-rule="evenodd"/>
  <path id="polygon15-4" d="M8.944.144H.8L4.872,9.387Z" transform="translate(-0.799 -0.144)" fill="#f30" fill-rule="evenodd"/>
</svg>
