<svg xmlns="http://www.w3.org/2000/svg" width="94.886" height="16.706" viewBox="0 0 94.886 16.706">
  <path id="path4258" d="M34.8,17.705a13.154,13.154,0,0,1-8.758-2.942,7.184,7.184,0,0,1-2.382-5.425,7.291,7.291,0,0,1,2.382-5.406C28.024,2.129,31.516,1,34.8,1c3.638,0,6.551.916,8.777,2.937a7.214,7.214,0,0,1,2.35,5.4,7.522,7.522,0,0,1-2.35,5.425A13.022,13.022,0,0,1,34.8,17.705V15.5A6.6,6.6,0,0,0,39.5,13.7a5.842,5.842,0,0,0,1.721-4.358A6.065,6.065,0,0,0,39.5,4.971a7.057,7.057,0,0,0-9.4,0,6.093,6.093,0,0,0-1.716,4.367A6.106,6.106,0,0,0,30.1,13.7,6.683,6.683,0,0,0,34.8,15.5v2.2ZM9.681,1.008a14.415,14.415,0,0,0-5.7,1.137C2.341,2.875,1,4.057,1,6.017a4.021,4.021,0,0,0,1.09,2.77,6.078,6.078,0,0,0,3.253,1.626c.9.2,2.816.5,4.727.7s3.763.39,4.523.583c.6.154,1.619.363,1.619,1.5a1.7,1.7,0,0,1-1.255,1.555,9.43,9.43,0,0,1-3.773.662,16,16,0,0,1-4.494-.779,5.421,5.421,0,0,1-2.6-1.738,2.989,2.989,0,0,1-.539-1.649H1.463v5.846H3.782V16.3a.331.331,0,0,1,.5-.284,18.3,18.3,0,0,0,3.393,1.1,14.5,14.5,0,0,0,3.52.438,15.1,15.1,0,0,0,4.719-.665,8.254,8.254,0,0,0,2.8-1.385,3.839,3.839,0,0,0,1.5-3.076A4.3,4.3,0,0,0,19.005,9.4a5.3,5.3,0,0,0-1.5-1.021,11.037,11.037,0,0,0-1.845-.645c-1.2-.293-3.9-.655-5.19-.791a35.914,35.914,0,0,1-4.645-.627,1.119,1.119,0,0,1-.865-1.038,1.429,1.429,0,0,1,.79-1.214,9.1,9.1,0,0,1,4.268-.846,12.365,12.365,0,0,1,4.944.965,5.433,5.433,0,0,1,1.177.7A3.539,3.539,0,0,1,17.3,6.826h1.873V1.737H17.077v.591c0,.191-.2.439-.57.234A15.885,15.885,0,0,0,9.681,1.008m45.83.925,10.2,9.207-.1-6.2c-.01-.813-.16-1.152-1.039-1.152H62.65V1.934h8.723V3.788H69.5c-.9,0-.953.287-.964,1.152L68.7,16.785H65.709L53.959,6.3l0,7.443c.01.809.048,1.19.882,1.19h2.095v1.854H48.371V14.931h2c.748,0,.718-.713.718-1.232V5.011c0-.561-.079-1.221-1.253-1.221H48.214V1.933Zm25.83,12.994a4.023,4.023,0,0,0,.516-.032.64.64,0,0,0,.4-.356,2.068,2.068,0,0,0,.04-.4l0-2.93c0-.07-.005-.1-.125-.258s-5.344-6.078-5.582-6.338a2.186,2.186,0,0,0-1.607-.822H73.174V1.934H83.4V3.786H82.17c-.285,0-.475.271-.231.571,0,0,3.442,4.117,3.474,4.16s.059.054.1.014S89.044,4.4,89.071,4.363a.357.357,0,0,0-.3-.574H87.5V1.934h8.383V3.788H94.013a1.6,1.6,0,0,0-1.467.7c-.234.264-5.5,6.277-5.645,6.44a.4.4,0,0,0-.069.274v2.93a2.063,2.063,0,0,0,.04.4.638.638,0,0,0,.4.356,3.91,3.91,0,0,0,.511.032H89.7V16.78H79.525V14.926l1.816,0Z" transform="translate(-1 -1)"/>
</svg>
